<svg width="212" height="16" viewBox="0 0 212 16" fill="none" xmlns="http://www.w3.org/2000/svg">
<path d="M4.47656 7.75781H1.51562V6.20312H4.47656C4.99219 6.20312 5.40885 6.11979 5.72656 5.95312C6.04427 5.78646 6.27604 5.55729 6.42188 5.26562C6.57292 4.96875 6.64844 4.63021 6.64844 4.25C6.64844 3.89062 6.57292 3.55469 6.42188 3.24219C6.27604 2.92448 6.04427 2.66927 5.72656 2.47656C5.40885 2.28385 4.99219 2.1875 4.47656 2.1875H2.11719V12H0.15625V0.625H4.47656C5.35677 0.625 6.10417 0.78125 6.71875 1.09375C7.33854 1.40104 7.8099 1.82812 8.13281 2.375C8.45573 2.91667 8.61719 3.53646 8.61719 4.23438C8.61719 4.96875 8.45573 5.59896 8.13281 6.125C7.8099 6.65104 7.33854 7.05469 6.71875 7.33594C6.10417 7.61719 5.35677 7.75781 4.47656 7.75781ZM12.7656 11.0781L15.0625 3.54688H17.0781L13.6875 13.2891C13.6094 13.4974 13.5078 13.724 13.3828 13.9688C13.2578 14.2135 13.0938 14.4453 12.8906 14.6641C12.6927 14.888 12.4453 15.0677 12.1484 15.2031C11.8516 15.3438 11.4922 15.4141 11.0703 15.4141C10.9036 15.4141 10.7422 15.3984 10.5859 15.3672C10.4349 15.3411 10.2917 15.3125 10.1562 15.2812L10.1484 13.8438C10.2005 13.849 10.263 13.8542 10.3359 13.8594C10.4141 13.8646 10.4766 13.8672 10.5234 13.8672C10.8359 13.8672 11.0964 13.8281 11.3047 13.75C11.513 13.6771 11.6823 13.5573 11.8125 13.3906C11.9479 13.224 12.0625 13 12.1562 12.7188L12.7656 11.0781ZM11.4688 3.54688L13.4766 9.875L13.8125 11.8594L12.5078 12.1953L9.4375 3.54688H11.4688ZM22.0312 3.54688V4.92188H17.2656V3.54688H22.0312ZM18.6406 1.47656H20.5234V9.66406C20.5234 9.92448 20.5599 10.125 20.6328 10.2656C20.7109 10.401 20.8177 10.4922 20.9531 10.5391C21.0885 10.5859 21.2474 10.6094 21.4297 10.6094C21.5599 10.6094 21.6849 10.6016 21.8047 10.5859C21.9245 10.5703 22.0208 10.5547 22.0938 10.5391L22.1016 11.9766C21.9453 12.0234 21.763 12.0651 21.5547 12.1016C21.3516 12.138 21.1172 12.1562 20.8516 12.1562C20.4193 12.1562 20.0365 12.0807 19.7031 11.9297C19.3698 11.7734 19.1094 11.5208 18.9219 11.1719C18.7344 10.8229 18.6406 10.3594 18.6406 9.78125V1.47656ZM25.3438 0V12H23.4688V0H25.3438ZM25.0156 7.46094L24.4062 7.45312C24.4115 6.86979 24.4922 6.33073 24.6484 5.83594C24.8099 5.34115 25.0339 4.91146 25.3203 4.54688C25.612 4.17708 25.9609 3.89323 26.3672 3.69531C26.7734 3.49219 27.224 3.39062 27.7188 3.39062C28.1354 3.39062 28.5104 3.44792 28.8438 3.5625C29.1823 3.67708 29.474 3.86198 29.7188 4.11719C29.9635 4.36719 30.1484 4.69531 30.2734 5.10156C30.4036 5.5026 30.4688 5.99219 30.4688 6.57031V12H28.5781V6.55469C28.5781 6.14844 28.5182 5.82552 28.3984 5.58594C28.2839 5.34635 28.1146 5.17448 27.8906 5.07031C27.6667 4.96094 27.3932 4.90625 27.0703 4.90625C26.7318 4.90625 26.4323 4.97396 26.1719 5.10938C25.9167 5.24479 25.7031 5.42969 25.5312 5.66406C25.3594 5.89844 25.2292 6.16927 25.1406 6.47656C25.0573 6.78385 25.0156 7.11198 25.0156 7.46094ZM32.0156 7.86719V7.6875C32.0156 7.07812 32.1042 6.51302 32.2812 5.99219C32.4583 5.46615 32.7135 5.01042 33.0469 4.625C33.3854 4.23438 33.7969 3.93229 34.2812 3.71875C34.7708 3.5 35.3229 3.39062 35.9375 3.39062C36.5573 3.39062 37.1094 3.5 37.5938 3.71875C38.0833 3.93229 38.4974 4.23438 38.8359 4.625C39.1745 5.01042 39.4323 5.46615 39.6094 5.99219C39.7865 6.51302 39.875 7.07812 39.875 7.6875V7.86719C39.875 8.47656 39.7865 9.04167 39.6094 9.5625C39.4323 10.0833 39.1745 10.5391 38.8359 10.9297C38.4974 11.3151 38.0859 11.6172 37.6016 11.8359C37.1172 12.0495 36.5677 12.1562 35.9531 12.1562C35.3333 12.1562 34.7786 12.0495 34.2891 11.8359C33.8047 11.6172 33.3932 11.3151 33.0547 10.9297C32.7161 10.5391 32.4583 10.0833 32.2812 9.5625C32.1042 9.04167 32.0156 8.47656 32.0156 7.86719ZM33.8984 7.6875V7.86719C33.8984 8.2474 33.9375 8.60677 34.0156 8.94531C34.0938 9.28385 34.2161 9.58073 34.3828 9.83594C34.5495 10.0911 34.763 10.2917 35.0234 10.4375C35.2839 10.5833 35.5938 10.6562 35.9531 10.6562C36.3021 10.6562 36.6042 10.5833 36.8594 10.4375C37.1198 10.2917 37.3333 10.0911 37.5 9.83594C37.6667 9.58073 37.7891 9.28385 37.8672 8.94531C37.9505 8.60677 37.9922 8.2474 37.9922 7.86719V7.6875C37.9922 7.3125 37.9505 6.95833 37.8672 6.625C37.7891 6.28646 37.6641 5.98698 37.4922 5.72656C37.3255 5.46615 37.112 5.26302 36.8516 5.11719C36.5964 4.96615 36.2917 4.89062 35.9375 4.89062C35.5833 4.89062 35.276 4.96615 35.0156 5.11719C34.7604 5.26302 34.5495 5.46615 34.3828 5.72656C34.2161 5.98698 34.0938 6.28646 34.0156 6.625C33.9375 6.95833 33.8984 7.3125 33.8984 7.6875ZM43.3203 5.35156V12H41.4375V3.54688H43.2109L43.3203 5.35156ZM42.9844 7.46094L42.375 7.45312C42.3802 6.85417 42.4635 6.30469 42.625 5.80469C42.7917 5.30469 43.0208 4.875 43.3125 4.51562C43.6094 4.15625 43.9635 3.88021 44.375 3.6875C44.7865 3.48958 45.2448 3.39062 45.75 3.39062C46.1562 3.39062 46.5234 3.44792 46.8516 3.5625C47.1849 3.67188 47.4688 3.85156 47.7031 4.10156C47.9427 4.35156 48.125 4.67708 48.25 5.07812C48.375 5.47396 48.4375 5.96094 48.4375 6.53906V12H46.5469V6.53125C46.5469 6.125 46.487 5.80469 46.3672 5.57031C46.2526 5.33073 46.0833 5.16146 45.8594 5.0625C45.6406 4.95833 45.3672 4.90625 45.0391 4.90625C44.7161 4.90625 44.4271 4.97396 44.1719 5.10938C43.9167 5.24479 43.7005 5.42969 43.5234 5.66406C43.3516 5.89844 43.2188 6.16927 43.125 6.47656C43.0312 6.78385 42.9844 7.11198 42.9844 7.46094ZM59.5 10.25V0H61.3906V12H59.6797L59.5 10.25ZM54 7.86719V7.70312C54 7.0625 54.0755 6.47917 54.2266 5.95312C54.3776 5.42188 54.5964 4.96615 54.8828 4.58594C55.1693 4.20052 55.5182 3.90625 55.9297 3.70312C56.3411 3.49479 56.8047 3.39062 57.3203 3.39062C57.8307 3.39062 58.2786 3.48958 58.6641 3.6875C59.0495 3.88542 59.3776 4.16927 59.6484 4.53906C59.9193 4.90365 60.1354 5.34115 60.2969 5.85156C60.4583 6.35677 60.5729 6.91927 60.6406 7.53906V8.0625C60.5729 8.66667 60.4583 9.21875 60.2969 9.71875C60.1354 10.2188 59.9193 10.651 59.6484 11.0156C59.3776 11.3802 59.0469 11.6615 58.6562 11.8594C58.2708 12.0573 57.8203 12.1562 57.3047 12.1562C56.7943 12.1562 56.3333 12.0495 55.9219 11.8359C55.5156 11.6224 55.1693 11.3229 54.8828 10.9375C54.5964 10.5521 54.3776 10.099 54.2266 9.57812C54.0755 9.05208 54 8.48177 54 7.86719ZM55.8828 7.70312V7.86719C55.8828 8.2526 55.9167 8.61198 55.9844 8.94531C56.0573 9.27865 56.1693 9.57292 56.3203 9.82812C56.4714 10.0781 56.6667 10.276 56.9062 10.4219C57.151 10.5625 57.4427 10.6328 57.7812 10.6328C58.2083 10.6328 58.5599 10.5391 58.8359 10.3516C59.112 10.1641 59.3281 9.91146 59.4844 9.59375C59.6458 9.27083 59.7552 8.91146 59.8125 8.51562V7.10156C59.7812 6.79427 59.7161 6.50781 59.6172 6.24219C59.5234 5.97656 59.3958 5.74479 59.2344 5.54688C59.0729 5.34375 58.8724 5.1875 58.6328 5.07812C58.3984 4.96354 58.1198 4.90625 57.7969 4.90625C57.4531 4.90625 57.1615 4.97917 56.9219 5.125C56.6823 5.27083 56.4844 5.47135 56.3281 5.72656C56.1771 5.98177 56.0651 6.27865 55.9922 6.61719C55.9193 6.95573 55.8828 7.31771 55.8828 7.70312ZM67.0859 12.1562C66.4609 12.1562 65.8958 12.0547 65.3906 11.8516C64.8906 11.6432 64.4635 11.3542 64.1094 10.9844C63.7604 10.6146 63.4922 10.1797 63.3047 9.67969C63.1172 9.17969 63.0234 8.64062 63.0234 8.0625V7.75C63.0234 7.08854 63.1198 6.48958 63.3125 5.95312C63.5052 5.41667 63.7734 4.95833 64.1172 4.57812C64.4609 4.19271 64.8672 3.89844 65.3359 3.69531C65.8047 3.49219 66.3125 3.39062 66.8594 3.39062C67.4635 3.39062 67.9922 3.49219 68.4453 3.69531C68.8984 3.89844 69.2734 4.1849 69.5703 4.55469C69.8724 4.91927 70.0964 5.35417 70.2422 5.85938C70.3932 6.36458 70.4688 6.92188 70.4688 7.53125V8.33594H63.9375V6.98438H68.6094V6.83594C68.599 6.4974 68.5312 6.17969 68.4062 5.88281C68.2865 5.58594 68.1016 5.34635 67.8516 5.16406C67.6016 4.98177 67.2682 4.89062 66.8516 4.89062C66.5391 4.89062 66.2604 4.95833 66.0156 5.09375C65.776 5.22396 65.5755 5.41406 65.4141 5.66406C65.2526 5.91406 65.1276 6.21615 65.0391 6.57031C64.9557 6.91927 64.9141 7.3125 64.9141 7.75V8.0625C64.9141 8.43229 64.9635 8.77604 65.0625 9.09375C65.1667 9.40625 65.3177 9.67969 65.5156 9.91406C65.7135 10.1484 65.9531 10.3333 66.2344 10.4688C66.5156 10.599 66.8359 10.6641 67.1953 10.6641C67.6484 10.6641 68.0521 10.5729 68.4062 10.3906C68.7604 10.2083 69.0677 9.95052 69.3281 9.61719L70.3203 10.5781C70.138 10.8438 69.901 11.099 69.6094 11.3438C69.3177 11.5833 68.9609 11.7786 68.5391 11.9297C68.1224 12.0807 67.638 12.1562 67.0859 12.1562ZM76.6797 9.71094C76.6797 9.52344 76.6328 9.35417 76.5391 9.20312C76.4453 9.04688 76.2656 8.90625 76 8.78125C75.7396 8.65625 75.3542 8.54167 74.8438 8.4375C74.3958 8.33854 73.9844 8.22135 73.6094 8.08594C73.2396 7.94531 72.9219 7.77604 72.6562 7.57812C72.3906 7.38021 72.1849 7.14583 72.0391 6.875C71.8932 6.60417 71.8203 6.29167 71.8203 5.9375C71.8203 5.59375 71.8958 5.26823 72.0469 4.96094C72.1979 4.65365 72.4141 4.38281 72.6953 4.14844C72.9766 3.91406 73.3177 3.72917 73.7188 3.59375C74.125 3.45833 74.5781 3.39062 75.0781 3.39062C75.7865 3.39062 76.3932 3.51042 76.8984 3.75C77.4089 3.98438 77.7995 4.30469 78.0703 4.71094C78.3411 5.11198 78.4766 5.5651 78.4766 6.07031H76.5938C76.5938 5.84635 76.5365 5.63802 76.4219 5.44531C76.3125 5.2474 76.1458 5.08854 75.9219 4.96875C75.6979 4.84375 75.4167 4.78125 75.0781 4.78125C74.7552 4.78125 74.487 4.83333 74.2734 4.9375C74.0651 5.03646 73.9089 5.16667 73.8047 5.32812C73.7057 5.48958 73.6562 5.66667 73.6562 5.85938C73.6562 6 73.6823 6.1276 73.7344 6.24219C73.7917 6.35156 73.8854 6.45312 74.0156 6.54688C74.1458 6.63542 74.3229 6.71875 74.5469 6.79688C74.776 6.875 75.0625 6.95052 75.4062 7.02344C76.0521 7.15885 76.6068 7.33333 77.0703 7.54688C77.5391 7.75521 77.8984 8.02604 78.1484 8.35938C78.3984 8.6875 78.5234 9.10417 78.5234 9.60938C78.5234 9.98438 78.4427 10.3281 78.2812 10.6406C78.125 10.9479 77.8958 11.2161 77.5938 11.4453C77.2917 11.6693 76.9297 11.8438 76.5078 11.9688C76.0911 12.0938 75.6224 12.1562 75.1016 12.1562C74.3359 12.1562 73.6875 12.0208 73.1562 11.75C72.625 11.474 72.2214 11.1224 71.9453 10.6953C71.6745 10.263 71.5391 9.8151 71.5391 9.35156H73.3594C73.3802 9.70052 73.4766 9.97917 73.6484 10.1875C73.8255 10.3906 74.0443 10.5391 74.3047 10.6328C74.5703 10.7214 74.8438 10.7656 75.125 10.7656C75.4635 10.7656 75.7474 10.7214 75.9766 10.6328C76.2057 10.5391 76.3802 10.4141 76.5 10.2578C76.6198 10.0964 76.6797 9.91406 76.6797 9.71094ZM85.3281 10.25V0H87.2188V12H85.5078L85.3281 10.25ZM79.8281 7.86719V7.70312C79.8281 7.0625 79.9036 6.47917 80.0547 5.95312C80.2057 5.42188 80.4245 4.96615 80.7109 4.58594C80.9974 4.20052 81.3464 3.90625 81.7578 3.70312C82.1693 3.49479 82.6328 3.39062 83.1484 3.39062C83.6589 3.39062 84.1068 3.48958 84.4922 3.6875C84.8776 3.88542 85.2057 4.16927 85.4766 4.53906C85.7474 4.90365 85.9635 5.34115 86.125 5.85156C86.2865 6.35677 86.401 6.91927 86.4688 7.53906V8.0625C86.401 8.66667 86.2865 9.21875 86.125 9.71875C85.9635 10.2188 85.7474 10.651 85.4766 11.0156C85.2057 11.3802 84.875 11.6615 84.4844 11.8594C84.099 12.0573 83.6484 12.1562 83.1328 12.1562C82.6224 12.1562 82.1615 12.0495 81.75 11.8359C81.3438 11.6224 80.9974 11.3229 80.7109 10.9375C80.4245 10.5521 80.2057 10.099 80.0547 9.57812C79.9036 9.05208 79.8281 8.48177 79.8281 7.86719ZM81.7109 7.70312V7.86719C81.7109 8.2526 81.7448 8.61198 81.8125 8.94531C81.8854 9.27865 81.9974 9.57292 82.1484 9.82812C82.2995 10.0781 82.4948 10.276 82.7344 10.4219C82.9792 10.5625 83.2708 10.6328 83.6094 10.6328C84.0365 10.6328 84.388 10.5391 84.6641 10.3516C84.9401 10.1641 85.1562 9.91146 85.3125 9.59375C85.474 9.27083 85.5833 8.91146 85.6406 8.51562V7.10156C85.6094 6.79427 85.5443 6.50781 85.4453 6.24219C85.3516 5.97656 85.224 5.74479 85.0625 5.54688C84.901 5.34375 84.7005 5.1875 84.4609 5.07812C84.2266 4.96354 83.9479 4.90625 83.625 4.90625C83.2812 4.90625 82.9896 4.97917 82.75 5.125C82.5104 5.27083 82.3125 5.47135 82.1562 5.72656C82.0052 5.98177 81.8932 6.27865 81.8203 6.61719C81.7474 6.95573 81.7109 7.31771 81.7109 7.70312ZM92.9141 12.1562C92.2891 12.1562 91.724 12.0547 91.2188 11.8516C90.7188 11.6432 90.2917 11.3542 89.9375 10.9844C89.5885 10.6146 89.3203 10.1797 89.1328 9.67969C88.9453 9.17969 88.8516 8.64062 88.8516 8.0625V7.75C88.8516 7.08854 88.9479 6.48958 89.1406 5.95312C89.3333 5.41667 89.6016 4.95833 89.9453 4.57812C90.2891 4.19271 90.6953 3.89844 91.1641 3.69531C91.6328 3.49219 92.1406 3.39062 92.6875 3.39062C93.2917 3.39062 93.8203 3.49219 94.2734 3.69531C94.7266 3.89844 95.1016 4.1849 95.3984 4.55469C95.7005 4.91927 95.9245 5.35417 96.0703 5.85938C96.2214 6.36458 96.2969 6.92188 96.2969 7.53125V8.33594H89.7656V6.98438H94.4375V6.83594C94.4271 6.4974 94.3594 6.17969 94.2344 5.88281C94.1146 5.58594 93.9297 5.34635 93.6797 5.16406C93.4297 4.98177 93.0964 4.89062 92.6797 4.89062C92.3672 4.89062 92.0885 4.95833 91.8438 5.09375C91.6042 5.22396 91.4036 5.41406 91.2422 5.66406C91.0807 5.91406 90.9557 6.21615 90.8672 6.57031C90.7839 6.91927 90.7422 7.3125 90.7422 7.75V8.0625C90.7422 8.43229 90.7917 8.77604 90.8906 9.09375C90.9948 9.40625 91.1458 9.67969 91.3438 9.91406C91.5417 10.1484 91.7812 10.3333 92.0625 10.4688C92.3438 10.599 92.6641 10.6641 93.0234 10.6641C93.4766 10.6641 93.8802 10.5729 94.2344 10.3906C94.5885 10.2083 94.8958 9.95052 95.1562 9.61719L96.1484 10.5781C95.9661 10.8438 95.7292 11.099 95.4375 11.3438C95.1458 11.5833 94.7891 11.7786 94.3672 11.9297C93.9505 12.0807 93.4661 12.1562 92.9141 12.1562ZM105.203 10.6562C105.51 10.6562 105.786 10.5964 106.031 10.4766C106.281 10.3516 106.482 10.1797 106.633 9.96094C106.789 9.74219 106.875 9.48958 106.891 9.20312H108.664C108.654 9.75 108.492 10.2474 108.18 10.6953C107.867 11.1432 107.453 11.5 106.938 11.7656C106.422 12.026 105.852 12.1562 105.227 12.1562C104.581 12.1562 104.018 12.0469 103.539 11.8281C103.06 11.6042 102.661 11.2969 102.344 10.9062C102.026 10.5156 101.786 10.0651 101.625 9.55469C101.469 9.04427 101.391 8.4974 101.391 7.91406V7.64062C101.391 7.05729 101.469 6.51042 101.625 6C101.786 5.48438 102.026 5.03125 102.344 4.64062C102.661 4.25 103.06 3.94531 103.539 3.72656C104.018 3.5026 104.578 3.39062 105.219 3.39062C105.896 3.39062 106.49 3.52604 107 3.79688C107.51 4.0625 107.911 4.4349 108.203 4.91406C108.5 5.38802 108.654 5.9401 108.664 6.57031H106.891C106.875 6.25781 106.797 5.97656 106.656 5.72656C106.521 5.47135 106.328 5.26823 106.078 5.11719C105.833 4.96615 105.539 4.89062 105.195 4.89062C104.815 4.89062 104.5 4.96875 104.25 5.125C104 5.27604 103.805 5.48438 103.664 5.75C103.523 6.01042 103.422 6.30469 103.359 6.63281C103.302 6.95573 103.273 7.29167 103.273 7.64062V7.91406C103.273 8.26302 103.302 8.60156 103.359 8.92969C103.417 9.25781 103.516 9.55208 103.656 9.8125C103.802 10.0677 104 10.2734 104.25 10.4297C104.5 10.5807 104.818 10.6562 105.203 10.6562ZM113.836 12.1562C113.211 12.1562 112.646 12.0547 112.141 11.8516C111.641 11.6432 111.214 11.3542 110.859 10.9844C110.51 10.6146 110.242 10.1797 110.055 9.67969C109.867 9.17969 109.773 8.64062 109.773 8.0625V7.75C109.773 7.08854 109.87 6.48958 110.062 5.95312C110.255 5.41667 110.523 4.95833 110.867 4.57812C111.211 4.19271 111.617 3.89844 112.086 3.69531C112.555 3.49219 113.062 3.39062 113.609 3.39062C114.214 3.39062 114.742 3.49219 115.195 3.69531C115.648 3.89844 116.023 4.1849 116.32 4.55469C116.622 4.91927 116.846 5.35417 116.992 5.85938C117.143 6.36458 117.219 6.92188 117.219 7.53125V8.33594H110.688V6.98438H115.359V6.83594C115.349 6.4974 115.281 6.17969 115.156 5.88281C115.036 5.58594 114.852 5.34635 114.602 5.16406C114.352 4.98177 114.018 4.89062 113.602 4.89062C113.289 4.89062 113.01 4.95833 112.766 5.09375C112.526 5.22396 112.326 5.41406 112.164 5.66406C112.003 5.91406 111.878 6.21615 111.789 6.57031C111.706 6.91927 111.664 7.3125 111.664 7.75V8.0625C111.664 8.43229 111.714 8.77604 111.812 9.09375C111.917 9.40625 112.068 9.67969 112.266 9.91406C112.464 10.1484 112.703 10.3333 112.984 10.4688C113.266 10.599 113.586 10.6641 113.945 10.6641C114.398 10.6641 114.802 10.5729 115.156 10.3906C115.51 10.2083 115.818 9.95052 116.078 9.61719L117.07 10.5781C116.888 10.8438 116.651 11.099 116.359 11.3438C116.068 11.5833 115.711 11.7786 115.289 11.9297C114.872 12.0807 114.388 12.1562 113.836 12.1562ZM120.578 5.15625V12H118.695V3.54688H120.492L120.578 5.15625ZM123.164 3.49219L123.148 5.24219C123.034 5.22135 122.909 5.20573 122.773 5.19531C122.643 5.1849 122.513 5.17969 122.383 5.17969C122.06 5.17969 121.776 5.22656 121.531 5.32031C121.286 5.40885 121.081 5.53906 120.914 5.71094C120.753 5.8776 120.628 6.08073 120.539 6.32031C120.451 6.5599 120.398 6.82812 120.383 7.125L119.953 7.15625C119.953 6.625 120.005 6.13281 120.109 5.67969C120.214 5.22656 120.37 4.82812 120.578 4.48438C120.792 4.14062 121.057 3.8724 121.375 3.67969C121.698 3.48698 122.07 3.39062 122.492 3.39062C122.607 3.39062 122.729 3.40104 122.859 3.42188C122.995 3.44271 123.096 3.46615 123.164 3.49219ZM123.781 7.86719V7.6875C123.781 7.07812 123.87 6.51302 124.047 5.99219C124.224 5.46615 124.479 5.01042 124.812 4.625C125.151 4.23438 125.562 3.93229 126.047 3.71875C126.536 3.5 127.089 3.39062 127.703 3.39062C128.323 3.39062 128.875 3.5 129.359 3.71875C129.849 3.93229 130.263 4.23438 130.602 4.625C130.94 5.01042 131.198 5.46615 131.375 5.99219C131.552 6.51302 131.641 7.07812 131.641 7.6875V7.86719C131.641 8.47656 131.552 9.04167 131.375 9.5625C131.198 10.0833 130.94 10.5391 130.602 10.9297C130.263 11.3151 129.852 11.6172 129.367 11.8359C128.883 12.0495 128.333 12.1562 127.719 12.1562C127.099 12.1562 126.544 12.0495 126.055 11.8359C125.57 11.6172 125.159 11.3151 124.82 10.9297C124.482 10.5391 124.224 10.0833 124.047 9.5625C123.87 9.04167 123.781 8.47656 123.781 7.86719ZM125.664 7.6875V7.86719C125.664 8.2474 125.703 8.60677 125.781 8.94531C125.859 9.28385 125.982 9.58073 126.148 9.83594C126.315 10.0911 126.529 10.2917 126.789 10.4375C127.049 10.5833 127.359 10.6562 127.719 10.6562C128.068 10.6562 128.37 10.5833 128.625 10.4375C128.885 10.2917 129.099 10.0911 129.266 9.83594C129.432 9.58073 129.555 9.28385 129.633 8.94531C129.716 8.60677 129.758 8.2474 129.758 7.86719V7.6875C129.758 7.3125 129.716 6.95833 129.633 6.625C129.555 6.28646 129.43 5.98698 129.258 5.72656C129.091 5.46615 128.878 5.26302 128.617 5.11719C128.362 4.96615 128.057 4.89062 127.703 4.89062C127.349 4.89062 127.042 4.96615 126.781 5.11719C126.526 5.26302 126.315 5.46615 126.148 5.72656C125.982 5.98698 125.859 6.28646 125.781 6.625C125.703 6.95833 125.664 7.3125 125.664 7.6875ZM139.062 0V12H137.188V0H139.062ZM138.734 7.46094L138.125 7.45312C138.13 6.86979 138.211 6.33073 138.367 5.83594C138.529 5.34115 138.753 4.91146 139.039 4.54688C139.331 4.17708 139.68 3.89323 140.086 3.69531C140.492 3.49219 140.943 3.39062 141.438 3.39062C141.854 3.39062 142.229 3.44792 142.562 3.5625C142.901 3.67708 143.193 3.86198 143.438 4.11719C143.682 4.36719 143.867 4.69531 143.992 5.10156C144.122 5.5026 144.188 5.99219 144.188 6.57031V12H142.297V6.55469C142.297 6.14844 142.237 5.82552 142.117 5.58594C142.003 5.34635 141.833 5.17448 141.609 5.07031C141.385 4.96094 141.112 4.90625 140.789 4.90625C140.451 4.90625 140.151 4.97396 139.891 5.10938C139.635 5.24479 139.422 5.42969 139.25 5.66406C139.078 5.89844 138.948 6.16927 138.859 6.47656C138.776 6.78385 138.734 7.11198 138.734 7.46094ZM150.859 10.3047V6.27344C150.859 5.97135 150.805 5.71094 150.695 5.49219C150.586 5.27344 150.419 5.10417 150.195 4.98438C149.977 4.86458 149.701 4.80469 149.367 4.80469C149.06 4.80469 148.794 4.85677 148.57 4.96094C148.346 5.0651 148.172 5.20573 148.047 5.38281C147.922 5.5599 147.859 5.76042 147.859 5.98438H145.984C145.984 5.65104 146.065 5.32812 146.227 5.01562C146.388 4.70312 146.622 4.42448 146.93 4.17969C147.237 3.9349 147.604 3.74219 148.031 3.60156C148.458 3.46094 148.938 3.39062 149.469 3.39062C150.104 3.39062 150.667 3.4974 151.156 3.71094C151.651 3.92448 152.039 4.2474 152.32 4.67969C152.607 5.10677 152.75 5.64323 152.75 6.28906V10.0469C152.75 10.4323 152.776 10.7786 152.828 11.0859C152.885 11.388 152.966 11.651 153.07 11.875V12H151.141C151.052 11.7969 150.982 11.5391 150.93 11.2266C150.883 10.9089 150.859 10.6016 150.859 10.3047ZM151.133 6.85938L151.148 8.02344H149.797C149.448 8.02344 149.141 8.05729 148.875 8.125C148.609 8.1875 148.388 8.28125 148.211 8.40625C148.034 8.53125 147.901 8.68229 147.812 8.85938C147.724 9.03646 147.68 9.23698 147.68 9.46094C147.68 9.6849 147.732 9.89062 147.836 10.0781C147.94 10.2604 148.091 10.4036 148.289 10.5078C148.492 10.612 148.737 10.6641 149.023 10.6641C149.409 10.6641 149.745 10.5859 150.031 10.4297C150.323 10.2682 150.552 10.0729 150.719 9.84375C150.885 9.60938 150.974 9.38802 150.984 9.17969L151.594 10.0156C151.531 10.2292 151.424 10.4583 151.273 10.7031C151.122 10.9479 150.924 11.1823 150.68 11.4062C150.44 11.625 150.151 11.8047 149.812 11.9453C149.479 12.0859 149.094 12.1562 148.656 12.1562C148.104 12.1562 147.612 12.0469 147.18 11.8281C146.747 11.6042 146.409 11.3047 146.164 10.9297C145.919 10.5495 145.797 10.1198 145.797 9.64062C145.797 9.19271 145.88 8.79688 146.047 8.45312C146.219 8.10417 146.469 7.8125 146.797 7.57812C147.13 7.34375 147.536 7.16667 148.016 7.04688C148.495 6.92188 149.042 6.85938 149.656 6.85938H151.133ZM159.461 9.71094C159.461 9.52344 159.414 9.35417 159.32 9.20312C159.227 9.04688 159.047 8.90625 158.781 8.78125C158.521 8.65625 158.135 8.54167 157.625 8.4375C157.177 8.33854 156.766 8.22135 156.391 8.08594C156.021 7.94531 155.703 7.77604 155.438 7.57812C155.172 7.38021 154.966 7.14583 154.82 6.875C154.674 6.60417 154.602 6.29167 154.602 5.9375C154.602 5.59375 154.677 5.26823 154.828 4.96094C154.979 4.65365 155.195 4.38281 155.477 4.14844C155.758 3.91406 156.099 3.72917 156.5 3.59375C156.906 3.45833 157.359 3.39062 157.859 3.39062C158.568 3.39062 159.174 3.51042 159.68 3.75C160.19 3.98438 160.581 4.30469 160.852 4.71094C161.122 5.11198 161.258 5.5651 161.258 6.07031H159.375C159.375 5.84635 159.318 5.63802 159.203 5.44531C159.094 5.2474 158.927 5.08854 158.703 4.96875C158.479 4.84375 158.198 4.78125 157.859 4.78125C157.536 4.78125 157.268 4.83333 157.055 4.9375C156.846 5.03646 156.69 5.16667 156.586 5.32812C156.487 5.48958 156.438 5.66667 156.438 5.85938C156.438 6 156.464 6.1276 156.516 6.24219C156.573 6.35156 156.667 6.45312 156.797 6.54688C156.927 6.63542 157.104 6.71875 157.328 6.79688C157.557 6.875 157.844 6.95052 158.188 7.02344C158.833 7.15885 159.388 7.33333 159.852 7.54688C160.32 7.75521 160.68 8.02604 160.93 8.35938C161.18 8.6875 161.305 9.10417 161.305 9.60938C161.305 9.98438 161.224 10.3281 161.062 10.6406C160.906 10.9479 160.677 11.2161 160.375 11.4453C160.073 11.6693 159.711 11.8438 159.289 11.9688C158.872 12.0938 158.404 12.1562 157.883 12.1562C157.117 12.1562 156.469 12.0208 155.938 11.75C155.406 11.474 155.003 11.1224 154.727 10.6953C154.456 10.263 154.32 9.8151 154.32 9.35156H156.141C156.161 9.70052 156.258 9.97917 156.43 10.1875C156.607 10.3906 156.826 10.5391 157.086 10.6328C157.352 10.7214 157.625 10.7656 157.906 10.7656C158.245 10.7656 158.529 10.7214 158.758 10.6328C158.987 10.5391 159.161 10.4141 159.281 10.2578C159.401 10.0964 159.461 9.91406 159.461 9.71094ZM166.828 3.54688V4.92188H162.062V3.54688H166.828ZM163.438 1.47656H165.32V9.66406C165.32 9.92448 165.357 10.125 165.43 10.2656C165.508 10.401 165.615 10.4922 165.75 10.5391C165.885 10.5859 166.044 10.6094 166.227 10.6094C166.357 10.6094 166.482 10.6016 166.602 10.5859C166.721 10.5703 166.818 10.5547 166.891 10.5391L166.898 11.9766C166.742 12.0234 166.56 12.0651 166.352 12.1016C166.148 12.138 165.914 12.1562 165.648 12.1562C165.216 12.1562 164.833 12.0807 164.5 11.9297C164.167 11.7734 163.906 11.5208 163.719 11.1719C163.531 10.8229 163.438 10.3594 163.438 9.78125V1.47656ZM173.047 10.3047V6.27344C173.047 5.97135 172.992 5.71094 172.883 5.49219C172.773 5.27344 172.607 5.10417 172.383 4.98438C172.164 4.86458 171.888 4.80469 171.555 4.80469C171.247 4.80469 170.982 4.85677 170.758 4.96094C170.534 5.0651 170.359 5.20573 170.234 5.38281C170.109 5.5599 170.047 5.76042 170.047 5.98438H168.172C168.172 5.65104 168.253 5.32812 168.414 5.01562C168.576 4.70312 168.81 4.42448 169.117 4.17969C169.424 3.9349 169.792 3.74219 170.219 3.60156C170.646 3.46094 171.125 3.39062 171.656 3.39062C172.292 3.39062 172.854 3.4974 173.344 3.71094C173.839 3.92448 174.227 4.2474 174.508 4.67969C174.794 5.10677 174.938 5.64323 174.938 6.28906V10.0469C174.938 10.4323 174.964 10.7786 175.016 11.0859C175.073 11.388 175.154 11.651 175.258 11.875V12H173.328C173.24 11.7969 173.169 11.5391 173.117 11.2266C173.07 10.9089 173.047 10.6016 173.047 10.3047ZM173.32 6.85938L173.336 8.02344H171.984C171.635 8.02344 171.328 8.05729 171.062 8.125C170.797 8.1875 170.576 8.28125 170.398 8.40625C170.221 8.53125 170.089 8.68229 170 8.85938C169.911 9.03646 169.867 9.23698 169.867 9.46094C169.867 9.6849 169.919 9.89062 170.023 10.0781C170.128 10.2604 170.279 10.4036 170.477 10.5078C170.68 10.612 170.924 10.6641 171.211 10.6641C171.596 10.6641 171.932 10.5859 172.219 10.4297C172.51 10.2682 172.74 10.0729 172.906 9.84375C173.073 9.60938 173.161 9.38802 173.172 9.17969L173.781 10.0156C173.719 10.2292 173.612 10.4583 173.461 10.7031C173.31 10.9479 173.112 11.1823 172.867 11.4062C172.628 11.625 172.339 11.8047 172 11.9453C171.667 12.0859 171.281 12.1562 170.844 12.1562C170.292 12.1562 169.799 12.0469 169.367 11.8281C168.935 11.6042 168.596 11.3047 168.352 10.9297C168.107 10.5495 167.984 10.1198 167.984 9.64062C167.984 9.19271 168.068 8.79688 168.234 8.45312C168.406 8.10417 168.656 7.8125 168.984 7.57812C169.318 7.34375 169.724 7.16667 170.203 7.04688C170.682 6.92188 171.229 6.85938 171.844 6.85938H173.32ZM185.398 7.75781H182.438V6.20312H185.398C185.914 6.20312 186.331 6.11979 186.648 5.95312C186.966 5.78646 187.198 5.55729 187.344 5.26562C187.495 4.96875 187.57 4.63021 187.57 4.25C187.57 3.89062 187.495 3.55469 187.344 3.24219C187.198 2.92448 186.966 2.66927 186.648 2.47656C186.331 2.28385 185.914 2.1875 185.398 2.1875H183.039V12H181.078V0.625H185.398C186.279 0.625 187.026 0.78125 187.641 1.09375C188.26 1.40104 188.732 1.82812 189.055 2.375C189.378 2.91667 189.539 3.53646 189.539 4.23438C189.539 4.96875 189.378 5.59896 189.055 6.125C188.732 6.65104 188.26 7.05469 187.641 7.33594C187.026 7.61719 186.279 7.75781 185.398 7.75781ZM200.367 6V6.625C200.367 7.48438 200.255 8.25521 200.031 8.9375C199.807 9.61979 199.487 10.2005 199.07 10.6797C198.659 11.1589 198.164 11.526 197.586 11.7812C197.008 12.0312 196.367 12.1562 195.664 12.1562C194.966 12.1562 194.328 12.0312 193.75 11.7812C193.177 11.526 192.68 11.1589 192.258 10.6797C191.836 10.2005 191.508 9.61979 191.273 8.9375C191.044 8.25521 190.93 7.48438 190.93 6.625V6C190.93 5.14062 191.044 4.3724 191.273 3.69531C191.503 3.01302 191.826 2.43229 192.242 1.95312C192.664 1.46875 193.161 1.10156 193.734 0.851562C194.312 0.596354 194.951 0.46875 195.648 0.46875C196.352 0.46875 196.992 0.596354 197.57 0.851562C198.148 1.10156 198.646 1.46875 199.062 1.95312C199.479 2.43229 199.799 3.01302 200.023 3.69531C200.253 4.3724 200.367 5.14062 200.367 6ZM198.406 6.625V5.98438C198.406 5.34896 198.344 4.78906 198.219 4.30469C198.099 3.8151 197.919 3.40625 197.68 3.07812C197.445 2.74479 197.156 2.49479 196.812 2.32812C196.469 2.15625 196.081 2.07031 195.648 2.07031C195.216 2.07031 194.831 2.15625 194.492 2.32812C194.154 2.49479 193.865 2.74479 193.625 3.07812C193.391 3.40625 193.211 3.8151 193.086 4.30469C192.961 4.78906 192.898 5.34896 192.898 5.98438V6.625C192.898 7.26042 192.961 7.82292 193.086 8.3125C193.211 8.80208 193.393 9.21615 193.633 9.55469C193.878 9.88802 194.169 10.1406 194.508 10.3125C194.846 10.4792 195.232 10.5625 195.664 10.5625C196.102 10.5625 196.49 10.4792 196.828 10.3125C197.167 10.1406 197.453 9.88802 197.688 9.55469C197.922 9.21615 198.099 8.80208 198.219 8.3125C198.344 7.82292 198.406 7.26042 198.406 6.625ZM211.398 6V6.625C211.398 7.48438 211.286 8.25521 211.062 8.9375C210.839 9.61979 210.518 10.2005 210.102 10.6797C209.69 11.1589 209.195 11.526 208.617 11.7812C208.039 12.0312 207.398 12.1562 206.695 12.1562C205.997 12.1562 205.359 12.0312 204.781 11.7812C204.208 11.526 203.711 11.1589 203.289 10.6797C202.867 10.2005 202.539 9.61979 202.305 8.9375C202.076 8.25521 201.961 7.48438 201.961 6.625V6C201.961 5.14062 202.076 4.3724 202.305 3.69531C202.534 3.01302 202.857 2.43229 203.273 1.95312C203.695 1.46875 204.193 1.10156 204.766 0.851562C205.344 0.596354 205.982 0.46875 206.68 0.46875C207.383 0.46875 208.023 0.596354 208.602 0.851562C209.18 1.10156 209.677 1.46875 210.094 1.95312C210.51 2.43229 210.831 3.01302 211.055 3.69531C211.284 4.3724 211.398 5.14062 211.398 6ZM209.438 6.625V5.98438C209.438 5.34896 209.375 4.78906 209.25 4.30469C209.13 3.8151 208.951 3.40625 208.711 3.07812C208.477 2.74479 208.188 2.49479 207.844 2.32812C207.5 2.15625 207.112 2.07031 206.68 2.07031C206.247 2.07031 205.862 2.15625 205.523 2.32812C205.185 2.49479 204.896 2.74479 204.656 3.07812C204.422 3.40625 204.242 3.8151 204.117 4.30469C203.992 4.78906 203.93 5.34896 203.93 5.98438V6.625C203.93 7.26042 203.992 7.82292 204.117 8.3125C204.242 8.80208 204.424 9.21615 204.664 9.55469C204.909 9.88802 205.201 10.1406 205.539 10.3125C205.878 10.4792 206.263 10.5625 206.695 10.5625C207.133 10.5625 207.521 10.4792 207.859 10.3125C208.198 10.1406 208.484 9.88802 208.719 9.55469C208.953 9.21615 209.13 8.80208 209.25 8.3125C209.375 7.82292 209.438 7.26042 209.438 6.625Z" fill="#313134"/>
</svg>
